<svg width="24" height="24" viewBox="0 0 24 24" fill="currentColor"
    xmlns="http://www.w3.org/2000/svg">
    <path
        d="M3.25992 5.02067C4.04313 3.89813 5.28798 3.25 7 3.25C9.39179 3.25 10.9775 4.65418 12 5.74639C13.0225 4.65418 14.6082 3.25 17 3.25C18.712 3.25 19.9569 3.89813 20.7401 5.02067C21.4909 6.09672 21.75 7.51296 21.75 8.95C21.75 11.0134 20.5075 12.802 19.158 14.25C18.4721 14.986 17.726 15.6674 17.0379 16.2812C16.9039 16.4007 16.7728 16.5171 16.6449 16.6306L16.644 16.6314C16.1046 17.1102 15.6234 17.5373 15.2303 17.9303L13.1787 19.982C12.9117 20.2493 12.5495 20.3997 12.1717 20.4H11.829C11.4512 20.3997 11.0883 20.2493 10.8213 19.982L8.76967 17.9303C8.37664 17.5373 7.89543 17.1102 7.35596 16.6314L7.35594 16.6314L7.35561 16.6311C7.22758 16.5174 7.09628 16.4009 6.96209 16.2812C6.27398 15.6674 5.52792 14.986 4.84196 14.25C3.49253 12.802 2.25 11.0134 2.25 8.95C2.25 7.51296 2.50914 6.09672 3.25992 5.02067Z" />
</svg>