<svg width="206" height="32" viewBox="0 0 206 32" fill="none" xmlns="http://www.w3.org/2000/svg">
<path d="M3.692 6.75597C3.692 6.25331 3.86533 5.82864 4.212 5.48197C4.576 5.11797 5.00933 4.93597 5.512 4.93597C6.01467 4.93597 6.43933 5.11797 6.786 5.48197C7.15 5.82864 7.332 6.25331 7.332 6.75597C7.332 7.25864 7.15 7.69197 6.786 8.05597C6.43933 8.40264 6.01467 8.57598 5.512 8.57598C5.00933 8.57598 4.576 8.40264 4.212 8.05597C3.86533 7.69197 3.692 7.25864 3.692 6.75597ZM0 21.628H4.524V12.476H0.468V10.604H6.552V21.628H10.764V23.5H0V21.628Z" fill="white"/>
<path d="M23.7726 6.6942C24.8169 5.19749 26.4767 4.33331 28.7594 4.33331C31.9484 4.33331 34.0627 6.20555 35.426 7.66183C36.7893 6.20555 38.9036 4.33331 42.0927 4.33331C44.3754 4.33331 46.0352 5.19749 47.0795 6.6942C48.0805 8.12894 48.426 10.0173 48.426 11.9333C48.426 14.6845 46.7693 17.0694 44.9701 18.9999C44.0555 19.9813 43.0607 20.8899 42.1432 21.7083C41.9642 21.868 41.7889 22.0235 41.6181 22.1752C40.8988 22.8136 40.2572 23.3831 39.7331 23.9071L36.9976 26.6427C36.6416 26.9991 36.1586 27.1995 35.6549 27.2H35.198C34.6943 27.1995 34.2105 26.9991 33.8545 26.6427L31.1189 23.9071C30.5949 23.3831 29.9533 22.8136 29.2341 22.1752L29.2339 22.1751L29.2337 22.175C29.063 22.0234 28.8878 21.8679 28.7088 21.7083C27.7913 20.8899 26.7966 19.9813 25.882 18.9999C24.0827 17.0694 22.426 14.6845 22.426 11.9333C22.426 10.0173 22.7715 8.12894 23.7726 6.6942Z" fill="#E81B2F"/>
<path d="M72.09 23.5H70.062V14.244C70.062 13.6373 69.9233 13.1433 69.646 12.762C69.3687 12.3633 68.9267 12.164 68.32 12.164C67.748 12.164 67.28 12.3807 66.916 12.814C66.5693 13.23 66.396 13.88 66.396 14.764V23.5H64.368V14.14C64.368 13.568 64.212 13.1 63.9 12.736C63.588 12.3547 63.172 12.164 62.652 12.164C62.028 12.164 61.5427 12.3893 61.196 12.84C60.8667 13.2907 60.702 13.88 60.702 14.608V23.5H58.674V10.604H60.702V12.008H61.014C61.2393 11.4013 61.5687 10.9593 62.002 10.682C62.4353 10.3873 62.9467 10.24 63.536 10.24C64.16 10.24 64.6713 10.4047 65.07 10.734C65.486 11.0633 65.772 11.488 65.928 12.008H66.24C66.8293 10.8293 67.7653 10.24 69.048 10.24C70.0187 10.24 70.764 10.552 71.284 11.176C71.8213 11.7827 72.09 12.58 72.09 13.568V23.5Z" fill="white"/>
<path d="M84.9679 21.16H84.6559C84.2399 21.992 83.6939 22.6507 83.0179 23.136C82.3419 23.6213 81.4839 23.864 80.4439 23.864C79.7333 23.864 79.0746 23.7427 78.4679 23.5C77.8786 23.2747 77.3673 22.928 76.9339 22.46C76.5179 21.992 76.1886 21.4113 75.9459 20.718C75.7206 20.0247 75.6079 19.2187 75.6079 18.3V10.604H77.6359V18.04C77.6359 19.392 77.9133 20.38 78.4679 21.004C79.0226 21.628 79.8719 21.94 81.0159 21.94C82.2466 21.94 83.2086 21.524 83.9019 20.692C84.6126 19.8427 84.9679 18.716 84.9679 17.312V10.604H86.9959V26.672C86.9959 27.2613 86.8053 27.7467 86.4239 28.128C86.0599 28.5093 85.5833 28.7 84.9939 28.7H77.6359V26.828H84.2659C84.7339 26.828 84.9679 26.568 84.9679 26.048V21.16Z" fill="white"/>
<path d="M99.248 28.7H97.22V10.604H99.248V12.632H99.56C100.011 11.852 100.635 11.2627 101.432 10.864C102.229 10.448 103.096 10.24 104.032 10.24C104.829 10.24 105.583 10.3873 106.294 10.682C107.005 10.9767 107.629 11.4013 108.166 11.956C108.721 12.5107 109.154 13.1953 109.466 14.01C109.795 14.8247 109.96 15.752 109.96 16.792V17.312C109.96 18.3693 109.804 19.3053 109.492 20.12C109.18 20.9347 108.747 21.6193 108.192 22.174C107.655 22.7287 107.022 23.1533 106.294 23.448C105.566 23.7253 104.795 23.864 103.98 23.864C103.564 23.864 103.139 23.812 102.706 23.708C102.273 23.6213 101.857 23.4827 101.458 23.292C101.077 23.084 100.721 22.8413 100.392 22.564C100.063 22.2693 99.7853 21.9227 99.56 21.524H99.248V28.7ZM103.564 21.94C104.188 21.94 104.76 21.836 105.28 21.628C105.8 21.4027 106.251 21.0907 106.632 20.692C107.031 20.2933 107.334 19.808 107.542 19.236C107.767 18.664 107.88 18.0227 107.88 17.312V16.792C107.88 16.0987 107.767 15.4747 107.542 14.92C107.334 14.348 107.031 13.8627 106.632 13.464C106.251 13.048 105.791 12.7273 105.254 12.502C104.734 12.2767 104.171 12.164 103.564 12.164C102.957 12.164 102.394 12.2853 101.874 12.528C101.354 12.7533 100.895 13.074 100.496 13.49C100.115 13.906 99.8113 14.4087 99.586 14.998C99.3607 15.57 99.248 16.2027 99.248 16.896V17.208C99.248 17.9187 99.3607 18.5687 99.586 19.158C99.8113 19.73 100.115 20.224 100.496 20.64C100.895 21.056 101.354 21.3767 101.874 21.602C102.394 21.8273 102.957 21.94 103.564 21.94Z" fill="white"/>
<path d="M122.968 21.316H122.656C122.24 22.1827 121.659 22.824 120.914 23.24C120.186 23.656 119.415 23.864 118.6 23.864C117.751 23.864 116.962 23.7253 116.234 23.448C115.506 23.1533 114.865 22.7287 114.31 22.174C113.773 21.602 113.348 20.9087 113.036 20.094C112.724 19.2793 112.568 18.3347 112.568 17.26V16.844C112.568 15.7867 112.724 14.8507 113.036 14.036C113.348 13.2213 113.773 12.5367 114.31 11.982C114.865 11.41 115.506 10.9767 116.234 10.682C116.962 10.3873 117.733 10.24 118.548 10.24C119.432 10.24 120.229 10.4393 120.94 10.838C121.668 11.2193 122.24 11.8173 122.656 12.632H122.968V10.604H124.996V20.848C124.996 21.368 125.23 21.628 125.698 21.628H126.348V23.5H124.97C124.381 23.5 123.895 23.3093 123.514 22.928C123.15 22.5467 122.968 22.0613 122.968 21.472V21.316ZM118.808 21.94C119.415 21.94 119.969 21.8273 120.472 21.602C120.992 21.3767 121.434 21.056 121.798 20.64C122.162 20.224 122.448 19.73 122.656 19.158C122.864 18.5687 122.968 17.9187 122.968 17.208V16.896C122.968 16.2027 122.864 15.57 122.656 14.998C122.448 14.4087 122.153 13.906 121.772 13.49C121.408 13.074 120.966 12.7533 120.446 12.528C119.943 12.2853 119.397 12.164 118.808 12.164C118.201 12.164 117.647 12.2767 117.144 12.502C116.641 12.7273 116.199 13.048 115.818 13.464C115.454 13.8627 115.168 14.3567 114.96 14.946C114.752 15.518 114.648 16.1507 114.648 16.844V17.26C114.648 18.7333 115.029 19.886 115.792 20.718C116.572 21.5327 117.577 21.94 118.808 21.94Z" fill="white"/>
<path d="M141.592 18.924C141.453 19.6347 141.211 20.2933 140.864 20.9C140.535 21.5067 140.11 22.0353 139.59 22.486C139.07 22.9193 138.463 23.2573 137.77 23.5C137.077 23.7427 136.305 23.864 135.456 23.864C134.555 23.864 133.697 23.7167 132.882 23.422C132.085 23.1273 131.383 22.7027 130.776 22.148C130.169 21.576 129.684 20.8827 129.32 20.068C128.973 19.2533 128.8 18.3173 128.8 17.26V16.948C128.8 15.908 128.973 14.972 129.32 14.14C129.684 13.308 130.169 12.606 130.776 12.034C131.383 11.462 132.085 11.02 132.882 10.708C133.697 10.396 134.555 10.24 135.456 10.24C136.271 10.24 137.025 10.3613 137.718 10.604C138.411 10.8467 139.018 11.1933 139.538 11.644C140.075 12.0773 140.509 12.5973 140.838 13.204C141.185 13.8107 141.419 14.4693 141.54 15.18L139.512 15.648C139.46 15.1973 139.33 14.764 139.122 14.348C138.931 13.9147 138.663 13.542 138.316 13.23C137.987 12.9007 137.579 12.6407 137.094 12.45C136.609 12.2593 136.045 12.164 135.404 12.164C134.78 12.164 134.191 12.2853 133.636 12.528C133.099 12.7533 132.622 13.0827 132.206 13.516C131.79 13.932 131.461 14.4347 131.218 15.024C130.993 15.6133 130.88 16.2547 130.88 16.948V17.26C130.88 17.988 130.993 18.6467 131.218 19.236C131.461 19.808 131.79 20.2933 132.206 20.692C132.622 21.0907 133.107 21.4027 133.662 21.628C134.217 21.836 134.815 21.94 135.456 21.94C136.097 21.94 136.652 21.8447 137.12 21.654C137.605 21.446 138.013 21.186 138.342 20.874C138.689 20.5447 138.957 20.172 139.148 19.756C139.356 19.34 139.495 18.9067 139.564 18.456L141.592 18.924Z" fill="white"/>
<path d="M148.776 15.96H149.218L154.132 10.604H156.628V10.76L151.272 16.662V17.13L157.252 23.344V23.5H154.756L149.27 17.832H148.776V23.5H146.748V5.29999H148.776V15.96Z" fill="white"/>
<path d="M170.728 21.316H170.416C170 22.1827 169.419 22.824 168.674 23.24C167.946 23.656 167.174 23.864 166.36 23.864C165.51 23.864 164.722 23.7253 163.994 23.448C163.266 23.1533 162.624 22.7287 162.07 22.174C161.532 21.602 161.108 20.9087 160.796 20.094C160.484 19.2793 160.328 18.3347 160.328 17.26V16.844C160.328 15.7867 160.484 14.8507 160.796 14.036C161.108 13.2213 161.532 12.5367 162.07 11.982C162.624 11.41 163.266 10.9767 163.994 10.682C164.722 10.3873 165.493 10.24 166.308 10.24C167.192 10.24 167.989 10.4393 168.7 10.838C169.428 11.2193 170 11.8173 170.416 12.632H170.728V10.604H172.756V20.848C172.756 21.368 172.99 21.628 173.458 21.628H174.108V23.5H172.73C172.14 23.5 171.655 23.3093 171.274 22.928C170.91 22.5467 170.728 22.0613 170.728 21.472V21.316ZM166.568 21.94C167.174 21.94 167.729 21.8273 168.232 21.602C168.752 21.3767 169.194 21.056 169.558 20.64C169.922 20.224 170.208 19.73 170.416 19.158C170.624 18.5687 170.728 17.9187 170.728 17.208V16.896C170.728 16.2027 170.624 15.57 170.416 14.998C170.208 14.4087 169.913 13.906 169.532 13.49C169.168 13.074 168.726 12.7533 168.206 12.528C167.703 12.2853 167.157 12.164 166.568 12.164C165.961 12.164 165.406 12.2767 164.904 12.502C164.401 12.7273 163.959 13.048 163.578 13.464C163.214 13.8627 162.928 14.3567 162.72 14.946C162.512 15.518 162.408 16.1507 162.408 16.844V17.26C162.408 18.7333 162.789 19.886 163.552 20.718C164.332 21.5327 165.337 21.94 166.568 21.94Z" fill="white"/>
<path d="M187.09 21.524H186.778C186.362 22.304 185.79 22.8933 185.062 23.292C184.351 23.6733 183.571 23.864 182.722 23.864C181.855 23.864 181.04 23.7167 180.278 23.422C179.515 23.1273 178.839 22.7027 178.25 22.148C177.678 21.5933 177.218 20.9087 176.872 20.094C176.542 19.262 176.378 18.3173 176.378 17.26V16.844C176.378 15.804 176.551 14.8767 176.898 14.062C177.244 13.23 177.704 12.5367 178.276 11.982C178.848 11.41 179.515 10.9767 180.278 10.682C181.04 10.3873 181.838 10.24 182.67 10.24C183.606 10.24 184.42 10.448 185.114 10.864C185.824 11.2627 186.379 11.852 186.778 12.632H187.09V10.604H189.118V26.672C189.118 27.2613 188.927 27.7467 188.546 28.128C188.182 28.5093 187.705 28.7 187.116 28.7H178.718V26.828H186.388C186.856 26.828 187.09 26.568 187.09 26.048V21.524ZM182.774 21.94C183.38 21.94 183.944 21.8273 184.464 21.602C184.984 21.3767 185.434 21.056 185.816 20.64C186.214 20.224 186.526 19.73 186.752 19.158C186.977 18.5687 187.09 17.9187 187.09 17.208V16.896C187.09 16.2027 186.977 15.57 186.752 14.998C186.526 14.4087 186.214 13.906 185.816 13.49C185.434 13.074 184.975 12.7533 184.438 12.528C183.918 12.2853 183.363 12.164 182.774 12.164C182.167 12.164 181.595 12.2767 181.058 12.502C180.538 12.7273 180.078 13.048 179.68 13.464C179.298 13.88 178.995 14.374 178.77 14.946C178.562 15.518 178.458 16.1507 178.458 16.844V17.26C178.458 17.988 178.562 18.638 178.77 19.21C178.995 19.782 179.298 20.276 179.68 20.692C180.078 21.0907 180.538 21.4027 181.058 21.628C181.578 21.836 182.15 21.94 182.774 21.94Z" fill="white"/>
<path d="M194.69 17.676C194.742 18.9587 195.14 19.99 195.886 20.77C196.631 21.55 197.671 21.94 199.006 21.94C199.612 21.94 200.141 21.8707 200.592 21.732C201.042 21.5933 201.424 21.4027 201.736 21.16C202.065 20.9173 202.325 20.64 202.516 20.328C202.724 19.9987 202.888 19.652 203.01 19.288L204.934 19.808C204.57 21.004 203.894 21.9833 202.906 22.746C201.935 23.4913 200.618 23.864 198.954 23.864C198.035 23.864 197.186 23.708 196.406 23.396C195.643 23.0667 194.984 22.6073 194.43 22.018C193.875 21.4287 193.442 20.7267 193.13 19.912C192.818 19.0973 192.662 18.196 192.662 17.208V16.584C192.662 15.6827 192.818 14.842 193.13 14.062C193.459 13.282 193.91 12.6147 194.482 12.06C195.054 11.488 195.721 11.046 196.484 10.734C197.264 10.4047 198.104 10.24 199.006 10.24C200.063 10.24 200.973 10.4393 201.736 10.838C202.516 11.2193 203.148 11.696 203.634 12.268C204.136 12.84 204.5 13.464 204.726 14.14C204.968 14.816 205.09 15.44 205.09 16.012V17.676H194.69ZM199.006 12.164C198.434 12.164 197.896 12.2593 197.394 12.45C196.908 12.6233 196.475 12.8747 196.094 13.204C195.73 13.5333 195.426 13.9233 195.184 14.374C194.958 14.8073 194.811 15.284 194.742 15.804H203.062C203.027 15.2493 202.888 14.7467 202.646 14.296C202.42 13.8453 202.117 13.464 201.736 13.152C201.372 12.84 200.947 12.5973 200.462 12.424C199.994 12.2507 199.508 12.164 199.006 12.164Z" fill="white"/>
</svg>
