<svg width="28" height="32" viewBox="0 0 28 32" fill="none" xmlns="http://www.w3.org/2000/svg">
<path d="M16.731 21.1757C16.7471 21.1018 16.7632 21.028 16.774 20.9513C16.7902 20.8431 16.801 20.734 16.8063 20.6246C16.8193 20.3032 16.7922 19.9813 16.7256 19.6674C16.7256 19.639 16.7256 19.6077 16.7067 19.5793C16.4982 18.7455 16.0082 18.021 15.3289 17.5423C14.6496 17.0636 13.8279 16.8637 13.0187 16.9803H12.981C12.2449 17.0367 11.5052 17.0071 10.7752 16.8923C8.62313 16.5741 7.20278 15.0914 6.74009 13.2821C6.06758 10.666 7.3615 8.16924 10.2802 6.88251C11.9561 6.144 13.0994 4.5079 12.6528 2.64456C12.5469 2.19892 12.3588 1.77971 12.0993 1.41093C11.8397 1.04216 11.5139 0.731061 11.1403 0.495449C10.7667 0.259838 10.3528 0.104342 9.9223 0.0378632C9.49175 -0.0286152 9.05301 -0.00477014 8.6312 0.108033C6.97144 0.551144 6.04337 2.23837 6.17249 4.00514C6.40922 7.29438 5.5753 9.22305 2.06209 10.9358C1.97014 10.9782 1.88035 11.0256 1.79308 11.0779C1.46645 11.2757 1.17512 11.5324 0.932265 11.8363C0.873968 11.9081 0.819198 11.9829 0.768172 12.0607C0.665931 12.2194 0.575972 12.3866 0.499167 12.5606C0.461506 12.643 0.429225 12.7282 0.396944 12.8162C0.395873 12.8257 0.395873 12.8352 0.396944 12.8446C0.367354 12.9298 0.340453 13.0122 0.316243 13.1003V13.1344C0.292032 13.2224 0.270512 13.3105 0.254372 13.3985C0.254372 13.3985 0.254372 13.3985 0.254372 13.4212C0.238231 13.5083 0.224781 13.603 0.214021 13.7053C0.214021 13.7962 0.19788 13.8871 0.19519 13.9893V14.0291C0.19519 14.1171 0.19519 14.208 0.19519 14.2989C0.19519 14.3131 0.19519 14.3302 0.19519 14.3444C0.19519 14.4353 0.211331 14.5262 0.224781 14.6284C0.223493 14.6407 0.223493 14.6531 0.224781 14.6654C0.238541 14.7611 0.257402 14.8559 0.281272 14.9494C0.302793 15.0431 0.329693 15.1369 0.359284 15.2334C0.359284 15.2334 0.359284 15.2562 0.359284 15.2704C0.386184 15.3556 0.418465 15.4408 0.453436 15.5232C0.461324 15.5375 0.467642 15.5528 0.472266 15.5686C0.509927 15.6482 0.547588 15.7277 0.587938 15.8044C0.587938 15.8186 0.601389 15.8299 0.606769 15.8413C0.6525 15.9208 0.69554 15.9975 0.746652 16.0742C0.797763 16.1509 0.848874 16.2248 0.905365 16.2986C0.959166 16.3696 1.01835 16.4378 1.07753 16.5031L1.10174 16.5259C1.16028 16.591 1.22225 16.6527 1.28735 16.7105C1.29321 16.7186 1.30052 16.7253 1.30887 16.7304C1.37612 16.7929 1.44338 16.8497 1.51332 16.9036C1.66149 17.0177 1.81904 17.1175 1.98408 17.2019C2.06478 17.2445 2.14548 17.2843 2.22887 17.3183H2.24232C2.59363 17.4627 2.96575 17.5424 3.34255 17.5541C3.4394 17.5541 3.53355 17.5541 3.63039 17.5541C6.41729 17.432 8.33529 18.1449 9.50009 19.7696C9.82128 20.2473 10.0902 20.7619 10.3017 21.3035L10.3179 21.3376C10.8801 22.8629 12.139 23.9338 13.5917 23.9082C13.8357 23.904 14.0784 23.8707 14.3153 23.8088C14.8932 23.6547 15.4209 23.3383 15.8424 22.8933C16.2639 22.4482 16.5635 21.891 16.7094 21.2808C16.7202 21.2495 16.7229 21.2126 16.731 21.1757Z" fill="white"/>
<path d="M10.8638 10.5808C10.8477 10.6575 10.8316 10.7314 10.8208 10.8052C10.8046 10.9144 10.7938 11.0244 10.7885 11.1347C10.7732 11.456 10.7995 11.7781 10.8665 12.0919C10.8665 12.1203 10.8665 12.1516 10.8854 12.18C11.0944 13.0135 11.5846 13.7376 12.2637 14.2162C12.9429 14.6949 13.7643 14.895 14.5734 14.779H14.6138C15.3498 14.7218 16.0895 14.7504 16.8196 14.8642C18.9717 15.1852 20.392 16.6679 20.8547 18.4773C21.5272 21.0933 20.2333 23.5901 17.3146 24.8768C15.6414 25.621 14.4981 27.2685 14.9447 29.1205C15.0512 29.5653 15.2396 29.9836 15.4992 30.3515C15.7588 30.7194 16.0845 31.0298 16.4577 31.2648C16.8309 31.4998 17.2443 31.6549 17.6743 31.7212C18.1042 31.7875 18.5423 31.7638 18.9636 31.6513C20.6234 31.2053 21.5514 29.521 21.425 27.7542C21.1856 24.465 22.0195 22.5363 25.5354 20.8235C25.6242 20.778 25.7103 20.7326 25.8044 20.6815C26.1305 20.4828 26.4217 20.2262 26.6652 19.9231C26.7217 19.8521 26.7782 19.7754 26.8293 19.6987C26.9313 19.5388 27.0212 19.3707 27.0983 19.1959C27.136 19.1107 27.171 19.0255 27.2005 18.9403C27.2016 18.9308 27.2016 18.9213 27.2005 18.9119C27.2301 18.8267 27.257 18.7443 27.2812 18.6562C27.2812 18.6562 27.2812 18.6335 27.2812 18.6221C27.3028 18.5341 27.3243 18.446 27.3404 18.358C27.3417 18.3505 27.3417 18.3428 27.3404 18.3353C27.3593 18.2444 27.37 18.1535 27.3808 18.0512C27.3808 17.9603 27.3808 17.8666 27.3969 17.7672V17.7246C27.3969 17.6365 27.3969 17.5484 27.3969 17.4576C27.3969 17.4576 27.3969 17.4263 27.3969 17.4093C27.3969 17.3184 27.3835 17.2303 27.37 17.1394V17.0997C27.37 17.0059 27.3377 16.9093 27.3162 16.8156C27.2947 16.7219 27.2651 16.6281 27.2355 16.5316V16.4946C27.2059 16.4094 27.1736 16.3242 27.1387 16.2418C27.1308 16.2275 27.1245 16.2122 27.1198 16.1964C27.0849 16.1169 27.0445 16.0373 27.0042 15.9578V15.9067C26.9617 15.8263 26.915 15.7486 26.8643 15.6738C26.8132 15.5971 26.7621 15.526 26.7056 15.4522V15.4352C26.6491 15.367 26.5926 15.2988 26.5307 15.2335L26.5092 15.2079C26.4473 15.1454 26.3855 15.0829 26.3236 15.0261L26.2994 15.0034C26.2321 14.9438 26.1649 14.8869 26.0949 14.833C25.9455 14.725 25.7881 14.6301 25.6242 14.5489C25.5435 14.5092 25.4601 14.4694 25.3767 14.4353C25.0252 14.2919 24.6531 14.2131 24.2765 14.2024C24.1823 14.2024 24.0855 14.2024 23.9886 14.2024C21.2044 14.3274 19.2837 13.6144 18.1189 11.9897C17.809 11.5205 17.5492 11.0166 17.3442 10.4871L17.328 10.4502C16.7658 8.92767 15.5096 7.85682 14.0543 7.89375C13.8102 7.89657 13.5673 7.92994 13.3306 7.99316C12.7529 8.14781 12.2255 8.46434 11.8041 8.90932C11.3827 9.35429 11.0829 9.91118 10.9365 10.5212C10.8773 10.5098 10.8719 10.5467 10.8638 10.5808Z" fill="white"/>
</svg>
